<svg xmlns="http://www.w3.org/2000/svg" viewBox="0 0 640 640">
  <rect width="640" height="640" rx="48" fill="#2a1710"/>
  <ellipse cx="320" cy="510" rx="190" ry="34" fill="#120a07" opacity=".34"/>
  <ellipse cx="320" cy="350" rx="190" ry="122" fill="#5d4333"/>
  <ellipse cx="320" cy="340" rx="176" ry="108" fill="#7a5339"/>
  <g fill="#cc8b2e">
    <path d="M242 326c0-48 38-86 86-86s86 38 86 86-38 86-86 86-86-38-86-86zm56 0c0 18 14 32 30 32s30-14 30-32-14-30-30-30-30 12-30 30z"/>
    <path d="M146 372c0-44 36-80 80-80s80 36 80 80-36 80-80 80-80-36-80-80zm52 0c0 16 13 28 28 28s28-12 28-28-13-28-28-28-28 12-28 28z"/>
    <path d="M336 374c0-44 36-80 80-80s80 36 80 80-36 80-80 80-80-36-80-80zm52 0c0 16 13 28 28 28s28-12 28-28-13-28-28-28-28 12-28 28z"/>
  </g>
  <circle cx="238" cy="276" r="7" fill="#567e30"/>
  <circle cx="285" cy="246" r="7" fill="#608936"/>
  <circle cx="401" cy="258" r="7" fill="#4d742c"/>
</svg>
